<svg width="110" height="21" viewBox="0 0 110 21" fill="none" xmlns="http://www.w3.org/2000/svg">
<g filter="url(#filter0_dd_4_4)">
<path d="M12.973 4C12.848 3.61742 12.6832 3.27462 12.4787 2.97159C12.2779 2.66477 12.0374 2.40341 11.7571 2.1875C11.4806 1.97159 11.1662 1.80682 10.8139 1.69318C10.4616 1.57955 10.0753 1.52273 9.65483 1.52273C8.96544 1.52273 8.33854 1.70076 7.77415 2.05682C7.20975 2.41288 6.76089 2.9375 6.42756 3.63068C6.09422 4.32386 5.92756 5.17424 5.92756 6.18182C5.92756 7.18939 6.09612 8.03977 6.43324 8.73295C6.77036 9.42614 7.2268 9.95076 7.80256 10.3068C8.37831 10.6629 9.02604 10.8409 9.74574 10.8409C10.4124 10.8409 10.9995 10.6989 11.5071 10.4148C12.0185 10.1269 12.4162 9.72159 12.7003 9.19886C12.9882 8.67235 13.1321 8.05303 13.1321 7.34091L13.5639 7.43182H10.0639V6.18182H14.4957V7.43182C14.4957 8.39015 14.2912 9.22348 13.8821 9.93182C13.4768 10.6402 12.9162 11.1894 12.2003 11.5795C11.4882 11.9659 10.67 12.1591 9.74574 12.1591C8.71544 12.1591 7.81013 11.9167 7.02983 11.4318C6.25331 10.947 5.64725 10.2576 5.21165 9.36364C4.77983 8.4697 4.56392 7.40909 4.56392 6.18182C4.56392 5.26136 4.68703 4.43371 4.93324 3.69886C5.18324 2.96023 5.53551 2.33144 5.99006 1.8125C6.4446 1.29356 6.98248 0.895833 7.60369 0.619318C8.22491 0.342803 8.90862 0.204545 9.65483 0.204545C10.2685 0.204545 10.8404 0.297348 11.3707 0.482954C11.9048 0.664772 12.3802 0.924242 12.7969 1.26136C13.2173 1.5947 13.5677 1.99432 13.848 2.46023C14.1283 2.92235 14.3215 3.43561 14.4276 4H12.973ZM17.027 12H15.5497L19.8224 0.363636H21.277L25.5497 12H24.0724L20.5952 2.20455H20.5043L17.027 12ZM17.5724 7.45455H23.527V8.70455H17.5724V7.45455ZM27.3622 0.363636H29.044L32.9986 10.0227H33.1349L37.0895 0.363636H38.7713V12H37.4531V3.15909H37.3395L33.7031 12H32.4304L28.794 3.15909H28.6804V12H27.3622V0.363636ZM41.5966 12V0.363636H48.6193V1.61364H43.0057V5.54545H48.2557V6.79545H43.0057V10.75H48.7102V12H41.5966ZM55.6591 0.363636H57.3409L61.2955 10.0227H61.4318L65.3864 0.363636H67.0682V12H65.75V3.15909H65.6364L62 12H60.7273L57.0909 3.15909H56.9773V12H55.6591V0.363636ZM70.3707 12H68.8935L73.1662 0.363636H74.6207L78.8935 12H77.4162L73.9389 2.20455H73.848L70.3707 12ZM70.9162 7.45455H76.8707V8.70455H70.9162V7.45455ZM89.9332 0.363636V12H88.5696L82.2287 2.86364H82.1151V12H80.706V0.363636H82.0696L88.4332 9.52273H88.5469V0.363636H89.9332ZM94.1619 0.363636V12H92.7528V0.363636H94.1619ZM97.4645 12H95.9872L100.26 0.363636H101.714L105.987 12H104.51L101.033 2.20455H100.942L97.4645 12ZM98.0099 7.45455H103.964V8.70455H98.0099V7.45455Z" fill="black"/>
<path d="M12.973 4L12.0225 4.31058L12.2477 5H12.973V4ZM12.4787 2.97159L11.6419 3.51912L11.6458 3.52512L11.6498 3.53106L12.4787 2.97159ZM11.7571 2.1875L11.1417 2.97571L11.1469 2.97973L11.7571 2.1875ZM10.8139 1.69318L11.1209 0.741472L11.1209 0.741472L10.8139 1.69318ZM6.42756 3.63068L7.32877 4.06405V4.06405L6.42756 3.63068ZM6.43324 8.73295L5.53395 9.17031L6.43324 8.73295ZM7.80256 10.3068L7.27659 11.1573L7.80256 10.3068ZM11.5071 10.4148L11.9955 11.2874L11.9977 11.2862L11.5071 10.4148ZM12.7003 9.19886L11.8229 8.71912L11.8217 8.72135L12.7003 9.19886ZM13.1321 7.34091L13.3381 6.36236L12.1321 6.10846V7.34091H13.1321ZM13.5639 7.43182V8.43182L13.7699 6.45327L13.5639 7.43182ZM10.0639 7.43182H9.06392V8.43182H10.0639V7.43182ZM10.0639 6.18182V5.18182H9.06392V6.18182H10.0639ZM14.4957 6.18182H15.4957V5.18182H14.4957V6.18182ZM13.8821 9.93182L13.0161 9.43169L13.0141 9.43518L13.8821 9.93182ZM12.2003 11.5795L12.6772 12.4585L12.6788 12.4576L12.2003 11.5795ZM7.02983 11.4318L6.5002 12.2801L6.50206 12.2812L7.02983 11.4318ZM5.21165 9.36364L4.31119 9.7986L4.3127 9.80168L5.21165 9.36364ZM4.93324 3.69886L3.98602 3.37826L3.98505 3.38117L4.93324 3.69886ZM5.99006 1.8125L6.74229 2.47139L5.99006 1.8125ZM7.60369 0.619318L7.19704 -0.294264L7.60369 0.619318ZM11.3707 0.482954L11.0404 1.42685L11.0485 1.4296L11.3707 0.482954ZM12.7969 1.26136L12.1678 2.03881L12.1756 2.04498L12.7969 1.26136ZM13.848 2.46023L12.9911 2.97575L12.993 2.97884L13.848 2.46023ZM14.4276 4V5H15.633L15.4104 3.81531L14.4276 4ZM13.9236 3.68942C13.7726 3.22744 13.5689 2.79938 13.3075 2.41212L11.6498 3.53106C11.7975 3.74986 11.9234 4.00741 12.0225 4.31058L13.9236 3.68942ZM13.3155 2.42406C13.0557 2.02702 12.7395 1.68196 12.3673 1.39527L11.1469 2.97973C11.3353 3.12486 11.5002 3.30253 11.6419 3.51912L13.3155 2.42406ZM12.3725 1.39931C11.9986 1.10733 11.5786 0.889109 11.1209 0.741472L10.5069 2.64489C10.7538 2.72453 10.9626 2.83585 11.1417 2.97569L12.3725 1.39931ZM11.1209 0.741472C10.657 0.591823 10.1656 0.522727 9.65483 0.522727V2.52273C9.985 2.52273 10.2663 2.56727 10.5069 2.64489L11.1209 0.741472ZM9.65483 0.522727C8.78316 0.522727 7.97017 0.75078 7.24058 1.21106L8.30771 2.90258C8.70691 2.65073 9.14771 2.52273 9.65483 2.52273V0.522727ZM7.24058 1.21106C6.49429 1.68188 5.92838 2.36124 5.52634 3.19731L7.32877 4.06405C7.5934 3.51376 7.92522 3.14388 8.30771 2.90258L7.24058 1.21106ZM5.52634 3.19731C5.11108 4.06086 4.92756 5.06882 4.92756 6.18182H6.92756C6.92756 5.27967 7.07736 4.58687 7.32877 4.06405L5.52634 3.19731ZM4.92756 6.18182C4.92756 7.29621 5.11344 8.30566 5.53395 9.17031L7.33253 8.2956C7.0788 7.77388 6.92756 7.08258 6.92756 6.18182H4.92756ZM5.53395 9.17031C5.94211 10.0096 6.51832 10.6884 7.27659 11.1573L8.32853 9.45631C7.93528 9.21312 7.59861 8.84271 7.33253 8.2956L5.53395 9.17031ZM7.27659 11.1573C8.02047 11.6174 8.85247 11.8409 9.74574 11.8409V9.84091C9.19961 9.84091 8.73616 9.7084 8.32853 9.45631L7.27659 11.1573ZM9.74574 11.8409C10.5581 11.8409 11.3181 11.6665 11.9955 11.2874L11.0187 9.54216C10.681 9.73118 10.2667 9.84091 9.74574 9.84091V11.8409ZM11.9977 11.2862C12.6752 10.9047 13.2064 10.3618 13.5789 9.67638L11.8217 8.72135C11.626 9.08133 11.3617 9.34904 11.0165 9.54337L11.9977 11.2862ZM13.5777 9.6786C13.9598 8.97976 14.1321 8.18939 14.1321 7.34091H12.1321C12.1321 7.91667 12.0165 8.36493 11.8229 8.71913L13.5777 9.6786ZM12.9261 8.31946L13.3579 8.41037L13.7699 6.45327L13.3381 6.36236L12.9261 8.31946ZM13.5639 6.43182H10.0639V8.43182H13.5639V6.43182ZM11.0639 7.43182V6.18182H9.06392V7.43182H11.0639ZM10.0639 7.18182H14.4957V5.18182H10.0639V7.18182ZM13.4957 6.18182V7.43182H15.4957V6.18182H13.4957ZM13.4957 7.43182C13.4957 8.24495 13.3234 8.89972 13.0161 9.43169L14.7481 10.4319C15.259 9.54725 15.4957 8.53535 15.4957 7.43182H13.4957ZM13.0141 9.43518C12.7007 9.98292 12.2749 10.4 11.7218 10.7015L12.6788 12.4576C13.5575 11.9788 14.2529 11.2974 14.7501 10.4285L13.0141 9.43518ZM11.7234 10.7006C11.1772 10.9969 10.5271 11.1591 9.74574 11.1591V13.1591C10.8128 13.1591 11.7991 12.9349 12.6772 12.4585L11.7234 10.7006ZM9.74574 11.1591C8.87865 11.1591 8.16077 10.9572 7.5576 10.5824L6.50206 12.2812C7.45949 12.8761 8.55222 13.1591 9.74574 13.1591V11.1591ZM7.55946 10.5836C6.95577 10.2067 6.47138 9.66597 6.1106 8.92559L4.3127 9.80168C4.82313 10.8492 5.55086 11.6873 6.5002 12.28L7.55946 10.5836ZM6.1121 8.92867C5.75942 8.19857 5.56392 7.29326 5.56392 6.18182H3.56392C3.56392 7.52492 3.80024 8.74082 4.3112 9.7986L6.1121 8.92867ZM5.56392 6.18182C5.56392 5.34966 5.67528 4.63185 5.88143 4.01656L3.98505 3.38117C3.69878 4.23557 3.56392 5.17307 3.56392 6.18182H5.56392ZM5.88045 4.01946C6.09379 3.38914 6.38492 2.8794 6.74229 2.47139L5.23782 1.15361C4.68611 1.78348 4.27268 2.53131 3.98602 3.37827L5.88045 4.01946ZM6.74229 2.47139C7.10287 2.05973 7.52338 1.74966 8.01035 1.5329L7.19704 -0.294264C6.44158 0.0420067 5.78633 0.52739 5.23782 1.15361L6.74229 2.47139ZM8.01035 1.5329C8.49155 1.3187 9.03496 1.20455 9.65483 1.20455V-0.795455C8.78227 -0.795455 7.95826 -0.633099 7.19704 -0.294264L8.01035 1.5329ZM9.65483 1.20455C10.1663 1.20455 10.6256 1.28164 11.0404 1.42681L11.7011 -0.460904C11.0553 -0.686943 10.3706 -0.795455 9.65483 -0.795455V1.20455ZM11.0485 1.4296C11.4771 1.57551 11.8474 1.77951 12.1679 2.03877L13.4259 0.483954C12.913 0.0689719 12.3326 -0.24597 11.693 -0.463696L11.0485 1.4296ZM12.1756 2.04498C12.5008 2.30279 12.7718 2.61121 12.9911 2.97575L14.7049 1.94471C14.3636 1.37743 13.9338 0.886602 13.4181 0.477747L12.1756 2.04498ZM12.993 2.97884C13.2072 3.33195 13.3595 3.73093 13.4448 4.18469L15.4104 3.81531C15.2835 3.14028 15.0494 2.51275 14.703 1.94162L12.993 2.97884ZM14.4276 3H12.973V5H14.4276V3ZM17.027 12V13H17.7331L17.9694 12.3345L17.027 12ZM15.5497 12L14.611 11.6553L14.1172 13H15.5497V12ZM19.8224 0.363636V-0.636364H19.1243L18.8837 0.0189505L19.8224 0.363636ZM21.277 0.363636L22.2157 0.0189505L21.9751 -0.636364H21.277V0.363636ZM25.5497 12V13H26.9822L26.4884 11.6553L25.5497 12ZM24.0724 12L23.1301 12.3345L23.3663 13H24.0724V12ZM20.5952 2.20455L21.5376 1.87001L21.3013 1.20455H20.5952V2.20455ZM20.5043 2.20455V1.20455H19.7981L19.5619 1.87001L20.5043 2.20455ZM17.5724 7.45455V6.45455H16.5724V7.45455H17.5724ZM23.527 7.45455H24.527V6.45455H23.527V7.45455ZM23.527 8.70455V9.70455H24.527V8.70455H23.527ZM17.5724 8.70455H16.5724V9.70455H17.5724V8.70455ZM17.027 11H15.5497V13H17.027V11ZM16.4884 12.3447L20.7612 0.708322L18.8837 0.0189505L14.611 11.6553L16.4884 12.3447ZM19.8224 1.36364H21.277V-0.636364H19.8224V1.36364ZM20.3383 0.708322L24.611 12.3447L26.4884 11.6553L22.2157 0.0189505L20.3383 0.708322ZM25.5497 11H24.0724V13H25.5497V11ZM25.0148 11.6655L21.5376 1.87001L19.6528 2.53908L23.1301 12.3345L25.0148 11.6655ZM20.5952 1.20455H20.5043V3.20455H20.5952V1.20455ZM19.5619 1.87001L16.0846 11.6655L17.9694 12.3345L21.4466 2.53908L19.5619 1.87001ZM17.5724 8.45455H23.527V6.45455H17.5724V8.45455ZM22.527 7.45455V8.70455H24.527V7.45455H22.527ZM23.527 7.70455H17.5724V9.70455H23.527V7.70455ZM18.5724 8.70455V7.45455H16.5724V8.70455H18.5724ZM27.3622 0.363636V-0.636364H26.3622V0.363636H27.3622ZM29.044 0.363636L29.9695 -0.0152512L29.7152 -0.636364H29.044V0.363636ZM32.9986 10.0227L32.0731 10.4016L32.3274 11.0227H32.9986V10.0227ZM33.1349 10.0227V11.0227H33.8061L34.0604 10.4016L33.1349 10.0227ZM37.0895 0.363636V-0.636364H36.4183L36.164 -0.0152512L37.0895 0.363636ZM38.7713 0.363636H39.7713V-0.636364H38.7713V0.363636ZM38.7713 12V13H39.7713V12H38.7713ZM37.4531 12H36.4531V13H37.4531V12ZM37.4531 3.15909H38.4531V2.15909H37.4531V3.15909ZM37.3395 3.15909V2.15909H36.6695L36.4147 2.7787L37.3395 3.15909ZM33.7031 12V13H34.3731L34.628 12.3804L33.7031 12ZM32.4304 12L31.5056 12.3804L31.7604 13H32.4304V12ZM28.794 3.15909L29.7189 2.7787L29.464 2.15909H28.794V3.15909ZM28.6804 3.15909V2.15909H27.6804V3.15909H28.6804ZM28.6804 12V13H29.6804V12H28.6804ZM27.3622 12H26.3622V13H27.3622V12ZM27.3622 1.36364H29.044V-0.636364H27.3622V1.36364ZM28.1186 0.742523L32.0731 10.4016L33.924 9.64384L29.9695 -0.0152512L28.1186 0.742523ZM32.9986 11.0227H33.1349V9.02273H32.9986V11.0227ZM34.0604 10.4016L38.0149 0.742523L36.164 -0.0152512L32.2095 9.64384L34.0604 10.4016ZM37.0895 1.36364H38.7713V-0.636364H37.0895V1.36364ZM37.7713 0.363636V12H39.7713V0.363636H37.7713ZM38.7713 11H37.4531V13H38.7713V11ZM38.4531 12V3.15909H36.4531V12H38.4531ZM37.4531 2.15909H37.3395V4.15909H37.4531V2.15909ZM36.4147 2.7787L32.7783 11.6196L34.628 12.3804L38.2643 3.53948L36.4147 2.7787ZM33.7031 11H32.4304V13H33.7031V11ZM33.3552 11.6196L29.7189 2.7787L27.8692 3.53948L31.5056 12.3804L33.3552 11.6196ZM28.794 2.15909H28.6804V4.15909H28.794V2.15909ZM27.6804 3.15909V12H29.6804V3.15909H27.6804ZM28.6804 11H27.3622V13H28.6804V11ZM28.3622 12V0.363636H26.3622V12H28.3622ZM41.5966 12H40.5966V13H41.5966V12ZM41.5966 0.363636V-0.636364H40.5966V0.363636H41.5966ZM48.6193 0.363636H49.6193V-0.636364H48.6193V0.363636ZM48.6193 1.61364V2.61364H49.6193V1.61364H48.6193ZM43.0057 1.61364V0.613636H42.0057V1.61364H43.0057ZM43.0057 5.54545H42.0057V6.54545H43.0057V5.54545ZM48.2557 5.54545H49.2557V4.54545H48.2557V5.54545ZM48.2557 6.79545V7.79545H49.2557V6.79545H48.2557ZM43.0057 6.79545V5.79545H42.0057V6.79545H43.0057ZM43.0057 10.75H42.0057V11.75H43.0057V10.75ZM48.7102 10.75H49.7102V9.75H48.7102V10.75ZM48.7102 12V13H49.7102V12H48.7102ZM42.5966 12V0.363636H40.5966V12H42.5966ZM41.5966 1.36364H48.6193V-0.636364H41.5966V1.36364ZM47.6193 0.363636V1.61364H49.6193V0.363636H47.6193ZM48.6193 0.613636H43.0057V2.61364H48.6193V0.613636ZM42.0057 1.61364V5.54545H44.0057V1.61364H42.0057ZM43.0057 6.54545H48.2557V4.54545H43.0057V6.54545ZM47.2557 5.54545V6.79545H49.2557V5.54545H47.2557ZM48.2557 5.79545H43.0057V7.79545H48.2557V5.79545ZM42.0057 6.79545V10.75H44.0057V6.79545H42.0057ZM43.0057 11.75H48.7102V9.75H43.0057V11.75ZM47.7102 10.75V12H49.7102V10.75H47.7102ZM48.7102 11H41.5966V13H48.7102V11ZM55.6591 0.363636V-0.636364H54.6591V0.363636H55.6591ZM57.3409 0.363636L58.2663 -0.0152512L58.0121 -0.636364H57.3409V0.363636ZM61.2955 10.0227L60.37 10.4016L60.6243 11.0227H61.2955V10.0227ZM61.4318 10.0227V11.0227H62.103L62.3573 10.4016L61.4318 10.0227ZM65.3864 0.363636V-0.636364H64.7152L64.4609 -0.0152512L65.3864 0.363636ZM67.0682 0.363636H68.0682V-0.636364H67.0682V0.363636ZM67.0682 12V13H68.0682V12H67.0682ZM65.75 12H64.75V13H65.75V12ZM65.75 3.15909H66.75V2.15909H65.75V3.15909ZM65.6364 3.15909V2.15909H64.9664L64.7115 2.7787L65.6364 3.15909ZM62 12V13H62.67L62.9248 12.3804L62 12ZM60.7273 12L59.8024 12.3804L60.0573 13H60.7273V12ZM57.0909 3.15909L58.0157 2.7787L57.7609 2.15909H57.0909V3.15909ZM56.9773 3.15909V2.15909H55.9773V3.15909H56.9773ZM56.9773 12V13H57.9773V12H56.9773ZM55.6591 12H54.6591V13H55.6591V12ZM55.6591 1.36364H57.3409V-0.636364H55.6591V1.36364ZM56.4155 0.742523L60.37 10.4016L62.2209 9.64384L58.2663 -0.0152512L56.4155 0.742523ZM61.2955 11.0227H61.4318V9.02273H61.2955V11.0227ZM62.3573 10.4016L66.3118 0.742523L64.4609 -0.0152512L60.5064 9.64384L62.3573 10.4016ZM65.3864 1.36364H67.0682V-0.636364H65.3864V1.36364ZM66.0682 0.363636V12H68.0682V0.363636H66.0682ZM67.0682 11H65.75V13H67.0682V11ZM66.75 12V3.15909H64.75V12H66.75ZM65.75 2.15909H65.6364V4.15909H65.75V2.15909ZM64.7115 2.7787L61.0752 11.6196L62.9248 12.3804L66.5612 3.53948L64.7115 2.7787ZM62 11H60.7273V13H62V11ZM61.6521 11.6196L58.0157 2.7787L56.1661 3.53948L59.8024 12.3804L61.6521 11.6196ZM57.0909 2.15909H56.9773V4.15909H57.0909V2.15909ZM55.9773 3.15909V12H57.9773V3.15909H55.9773ZM56.9773 11H55.6591V13H56.9773V11ZM56.6591 12V0.363636H54.6591V12H56.6591ZM70.3707 12V13H71.0769L71.3131 12.3345L70.3707 12ZM68.8935 12L67.9548 11.6553L67.461 13H68.8935V12ZM73.1662 0.363636V-0.636364H72.4681L72.2275 0.0189505L73.1662 0.363636ZM74.6207 0.363636L75.5595 0.0189505L75.3188 -0.636364H74.6207V0.363636ZM78.8935 12V13H80.3259L79.8322 11.6553L78.8935 12ZM77.4162 12L76.4738 12.3345L76.71 13H77.4162V12ZM73.9389 2.20455L74.8813 1.87001L74.6451 1.20455H73.9389V2.20455ZM73.848 2.20455V1.20455H73.1419L72.9056 1.87001L73.848 2.20455ZM70.9162 7.45455V6.45455H69.9162V7.45455H70.9162ZM76.8707 7.45455H77.8707V6.45455H76.8707V7.45455ZM76.8707 8.70455V9.70455H77.8707V8.70455H76.8707ZM70.9162 8.70455H69.9162V9.70455H70.9162V8.70455ZM70.3707 11H68.8935V13H70.3707V11ZM69.8322 12.3447L74.1049 0.708322L72.2275 0.0189505L67.9548 11.6553L69.8322 12.3447ZM73.1662 1.36364H74.6207V-0.636364H73.1662V1.36364ZM73.682 0.708322L77.9548 12.3447L79.8322 11.6553L75.5595 0.0189505L73.682 0.708322ZM78.8935 11H77.4162V13H78.8935V11ZM78.3586 11.6655L74.8813 1.87001L72.9965 2.53908L76.4738 12.3345L78.3586 11.6655ZM73.9389 1.20455H73.848V3.20455H73.9389V1.20455ZM72.9056 1.87001L69.4284 11.6655L71.3131 12.3345L74.7904 2.53908L72.9056 1.87001ZM70.9162 8.45455H76.8707V6.45455H70.9162V8.45455ZM75.8707 7.45455V8.70455H77.8707V7.45455H75.8707ZM76.8707 7.70455H70.9162V9.70455H76.8707V7.70455ZM71.9162 8.70455V7.45455H69.9162V8.70455H71.9162ZM89.9332 0.363636H90.9332V-0.636364H89.9332V0.363636ZM89.9332 12V13H90.9332V12H89.9332ZM88.5696 12L87.7481 12.5702L88.0464 13H88.5696V12ZM82.2287 2.86364L83.0502 2.29347L82.7519 1.86364H82.2287V2.86364ZM82.1151 2.86364V1.86364H81.1151V2.86364H82.1151ZM82.1151 12V13H83.1151V12H82.1151ZM80.706 12H79.706V13H80.706V12ZM80.706 0.363636V-0.636364H79.706V0.363636H80.706ZM82.0696 0.363636L82.8908 -0.206951L82.5925 -0.636364H82.0696V0.363636ZM88.4332 9.52273L87.612 10.0933L87.9104 10.5227H88.4332V9.52273ZM88.5469 9.52273V10.5227H89.5469V9.52273H88.5469ZM88.5469 0.363636V-0.636364H87.5469V0.363636H88.5469ZM88.9332 0.363636V12H90.9332V0.363636H88.9332ZM89.9332 11H88.5696V13H89.9332V11ZM89.3911 11.4298L83.0502 2.29347L81.4072 3.4338L87.7481 12.5702L89.3911 11.4298ZM82.2287 1.86364H82.1151V3.86364H82.2287V1.86364ZM81.1151 2.86364V12H83.1151V2.86364H81.1151ZM82.1151 11H80.706V13H82.1151V11ZM81.706 12V0.363636H79.706V12H81.706ZM80.706 1.36364H82.0696V-0.636364H80.706V1.36364ZM81.2484 0.934223L87.612 10.0933L89.2545 8.95214L82.8908 -0.206951L81.2484 0.934223ZM88.4332 10.5227H88.5469V8.52273H88.4332V10.5227ZM89.5469 9.52273V0.363636H87.5469V9.52273H89.5469ZM88.5469 1.36364H89.9332V-0.636364H88.5469V1.36364ZM94.1619 0.363636H95.1619V-0.636364H94.1619V0.363636ZM94.1619 12V13H95.1619V12H94.1619ZM92.7528 12H91.7528V13H92.7528V12ZM92.7528 0.363636V-0.636364H91.7528V0.363636H92.7528ZM93.1619 0.363636V12H95.1619V0.363636H93.1619ZM94.1619 11H92.7528V13H94.1619V11ZM93.7528 12V0.363636H91.7528V12H93.7528ZM92.7528 1.36364H94.1619V-0.636364H92.7528V1.36364ZM97.4645 12V13H98.1706L98.4069 12.3345L97.4645 12ZM95.9872 12L95.0485 11.6553L94.5547 13H95.9872V12ZM100.26 0.363636V-0.636364H99.5619L99.3212 0.0189505L100.26 0.363636ZM101.714 0.363636L102.653 0.0189505L102.413 -0.636364H101.714V0.363636ZM105.987 12V13H107.42L106.926 11.6553L105.987 12ZM104.51 12L103.568 12.3345L103.804 13H104.51V12ZM101.033 2.20455L101.975 1.87001L101.739 1.20455H101.033V2.20455ZM100.942 2.20455V1.20455H100.236L99.9994 1.87001L100.942 2.20455ZM98.0099 7.45455V6.45455H97.0099V7.45455H98.0099ZM103.964 7.45455H104.964V6.45455H103.964V7.45455ZM103.964 8.70455V9.70455H104.964V8.70455H103.964ZM98.0099 8.70455H97.0099V9.70455H98.0099V8.70455ZM97.4645 11H95.9872V13H97.4645V11ZM96.9259 12.3447L101.199 0.708322L99.3212 0.0189505L95.0485 11.6553L96.9259 12.3447ZM100.26 1.36364H101.714V-0.636364H100.26V1.36364ZM100.776 0.708322L105.049 12.3447L106.926 11.6553L102.653 0.0189505L100.776 0.708322ZM105.987 11H104.51V13H105.987V11ZM105.452 11.6655L101.975 1.87001L100.09 2.53908L103.568 12.3345L105.452 11.6655ZM101.033 1.20455H100.942V3.20455H101.033V1.20455ZM99.9994 1.87001L96.5221 11.6655L98.4069 12.3345L101.884 2.53908L99.9994 1.87001ZM98.0099 8.45455H103.964V6.45455H98.0099V8.45455ZM102.964 7.45455V8.70455H104.964V7.45455H102.964ZM103.964 7.70455H98.0099V9.70455H103.964V7.70455ZM99.0099 8.70455V7.45455H97.0099V8.70455H99.0099Z" fill="black"/>
</g>
<defs>
<filter id="filter0_dd_4_4" x="0.563919" y="0.204544" width="109.423" height="19.9545" filterUnits="userSpaceOnUse" color-interpolation-filters="sRGB">
<feFlood flood-opacity="0" result="BackgroundImageFix"/>
<feColorMatrix in="SourceAlpha" type="matrix" values="0 0 0 0 0 0 0 0 0 0 0 0 0 0 0 0 0 0 127 0" result="hardAlpha"/>
<feOffset dy="4"/>
<feGaussianBlur stdDeviation="2"/>
<feComposite in2="hardAlpha" operator="out"/>
<feColorMatrix type="matrix" values="0 0 0 0 0 0 0 0 0 0 0 0 0 0 0 0 0 0 0.25 0"/>
<feBlend mode="normal" in2="BackgroundImageFix" result="effect1_dropShadow_4_4"/>
<feColorMatrix in="SourceAlpha" type="matrix" values="0 0 0 0 0 0 0 0 0 0 0 0 0 0 0 0 0 0 127 0" result="hardAlpha"/>
<feOffset dy="4"/>
<feGaussianBlur stdDeviation="2"/>
<feComposite in2="hardAlpha" operator="out"/>
<feColorMatrix type="matrix" values="0 0 0 0 0 0 0 0 0 0 0 0 0 0 0 0 0 0 0.25 0"/>
<feBlend mode="normal" in2="effect1_dropShadow_4_4" result="effect2_dropShadow_4_4"/>
<feBlend mode="normal" in="SourceGraphic" in2="effect2_dropShadow_4_4" result="shape"/>
</filter>
</defs>
</svg>
